<svg width="110" height="36" viewBox="0 0 110 36" fill="none" xmlns="http://www.w3.org/2000/svg">
<path d="M20.9026 14.83C21.4066 14.83 21.7706 14.718 21.9946 14.494C22.2186 14.27 22.5686 13.794 23.0446 13.066L28.1686 5.254C28.3366 4.974 28.5186 4.792 28.7146 4.708C28.9386 4.596 29.1626 4.54 29.3866 4.54H30.1006C30.4926 4.54 30.7726 4.652 30.9406 4.876C31.1366 5.072 31.2346 5.394 31.2346 5.842V27.22H30.8146V5.842C30.8146 5.618 30.7586 5.422 30.6466 5.254C30.5626 5.058 30.3806 4.96 30.1006 4.96H29.4706C29.2746 4.96 29.1066 4.988 28.9666 5.044C28.8266 5.1 28.6726 5.268 28.5046 5.548L23.3806 13.276C22.8766 14.032 22.4846 14.55 22.2046 14.83C21.9526 15.11 21.5186 15.25 20.9026 15.25C20.2866 15.25 19.8386 15.11 19.5586 14.83C19.3066 14.55 18.9286 14.032 18.4246 13.276L13.3006 5.548C13.1326 5.268 12.9646 5.1 12.7966 5.044C12.6566 4.988 12.4886 4.96 12.2926 4.96H11.6626C11.3826 4.96 11.2006 5.058 11.1166 5.254C11.0326 5.422 10.9906 5.618 10.9906 5.842V27.22H10.5706V5.842C10.5706 5.394 10.6546 5.072 10.8226 4.876C11.0186 4.652 11.2986 4.54 11.6626 4.54H12.3766C12.6006 4.54 12.8246 4.596 13.0486 4.708C13.2726 4.792 13.4686 4.974 13.6366 5.254L18.7606 13.066C19.2366 13.794 19.5866 14.27 19.8106 14.494C20.0346 14.718 20.3986 14.83 20.9026 14.83ZM13.8886 31C14.4206 31 14.7986 30.888 15.0226 30.664C15.2746 30.412 15.4006 30.02 15.4006 29.488V14.704L17.8786 19.282C18.1306 19.758 18.4246 20.108 18.7606 20.332C19.1246 20.528 19.5726 20.626 20.1046 20.626H21.7846C22.3166 20.626 22.7506 20.528 23.0866 20.332C23.4506 20.108 23.7586 19.758 24.0106 19.282L26.4886 14.704V29.488C26.4886 30.02 26.6006 30.412 26.8246 30.664C27.0766 30.888 27.4686 31 28.0006 31H34.4686C35.0006 31 35.3786 30.888 35.6026 30.664C35.8546 30.412 35.9806 30.02 35.9806 29.488V2.272C35.9806 1.74 35.8546 1.362 35.6026 1.138C35.3786 0.885999 35.0006 0.759999 34.4686 0.759999H27.6646C27.2166 0.759999 26.8386 0.857998 26.5306 1.054C26.2506 1.25 25.9846 1.572 25.7326 2.02L21.9946 8.866C21.8546 9.118 21.7286 9.3 21.6166 9.412C21.5326 9.524 21.4066 9.58 21.2386 9.58H20.8606C20.6926 9.58 20.5526 9.524 20.4406 9.412C20.3566 9.3 20.2446 9.118 20.1046 8.866L16.3246 2.02C16.0726 1.572 15.7926 1.25 15.4846 1.054C15.2046 0.857998 14.8406 0.759999 14.3926 0.759999H7.63063C7.09863 0.759999 6.70663 0.885999 6.45463 1.138C6.23063 1.362 6.11863 1.74 6.11863 2.272V29.488C6.11863 30.02 6.23063 30.412 6.45463 30.664C6.70663 30.888 7.09863 31 7.63063 31H13.8886ZM15.2326 31.042L9.77263 35.578C9.66063 35.69 9.47863 35.788 9.22663 35.872C9.00263 35.956 8.75063 35.998 8.47063 35.998H2.21263C1.54063 35.998 1.05063 35.844 0.742625 35.536C0.434625 35.228 0.280625 34.738 0.280625 34.066V6.85C0.280625 6.486 0.322625 6.178 0.406625 5.926C0.518625 5.674 0.672625 5.464 0.868625 5.296L6.28663 0.717999C6.42663 0.605999 6.60863 0.521999 6.83263 0.465998C7.08463 0.381999 7.35063 0.339999 7.63063 0.339999H14.3926C14.9246 0.339999 15.3586 0.451999 15.6946 0.675997C16.0586 0.899998 16.3946 1.278 16.7026 1.81L19.5586 7.06L19.9366 6.388C20.0486 6.192 20.1606 6.01 20.2726 5.842C20.4126 5.646 20.5526 5.492 20.6926 5.38L26.1106 0.843998C26.3346 0.675998 26.5586 0.549998 26.7826 0.465998C27.0346 0.381999 27.3286 0.339999 27.6646 0.339999H34.4686C35.1406 0.339999 35.6306 0.493999 35.9386 0.801998C36.2466 1.11 36.4006 1.6 36.4006 2.272V29.488C36.4006 29.852 36.3446 30.16 36.2326 30.412C36.1486 30.664 36.0086 30.874 35.8126 31.042L30.3526 35.578C30.2406 35.69 30.0586 35.788 29.8066 35.872C29.5826 35.956 29.3306 35.998 29.0506 35.998H22.5826C21.8826 35.998 21.3786 35.844 21.0706 35.536C20.7906 35.228 20.6506 34.738 20.6506 34.066V22.978L18.1726 25.036C17.9486 25.232 17.6826 25.386 17.3746 25.498C17.0946 25.582 16.7586 25.624 16.3666 25.624H15.8206V29.488C15.8206 29.852 15.7646 30.16 15.6526 30.412C15.5686 30.664 15.4286 30.874 15.2326 31.042ZM49.9758 35.998H41.4918C40.8198 35.998 40.3298 35.844 40.0218 35.536C39.7138 35.228 39.5598 34.738 39.5598 34.066V25.54C39.5598 25.176 39.6018 24.868 39.6858 24.616C39.7978 24.336 39.9378 24.126 40.1058 23.986L45.5658 19.408C45.7058 19.296 45.8878 19.212 46.1118 19.156C46.3358 19.072 46.6018 19.03 46.9098 19.03H55.3938C56.0658 19.03 56.5558 19.184 56.8638 19.492C57.1718 19.772 57.3258 20.262 57.3258 20.962V29.488C57.3258 29.852 57.2698 30.16 57.1578 30.412C57.0738 30.664 56.9338 30.874 56.7378 31.042L51.2778 35.578C51.1658 35.69 50.9838 35.788 50.7318 35.872C50.5078 35.956 50.2558 35.998 49.9758 35.998ZM55.3938 31C55.9258 31 56.3038 30.888 56.5278 30.664C56.7798 30.412 56.9058 30.02 56.9058 29.488V20.962C56.9058 20.43 56.7798 20.052 56.5278 19.828C56.3038 19.576 55.9258 19.45 55.3938 19.45H46.9098C46.3778 19.45 45.9858 19.576 45.7338 19.828C45.5098 20.052 45.3978 20.43 45.3978 20.962V29.488C45.3978 30.02 45.5098 30.412 45.7338 30.664C45.9858 30.888 46.3778 31 46.9098 31H55.3938ZM50.9418 27.22V23.23H51.3618V27.22H50.9418ZM81.9116 35.998H62.4236C61.7516 35.998 61.2616 35.844 60.9536 35.536C60.6456 35.228 60.4916 34.738 60.4916 34.066V6.85C60.4916 6.486 60.5336 6.178 60.6176 5.926C60.7296 5.674 60.8836 5.464 61.0796 5.296L66.4976 0.717999C66.6376 0.605999 66.8196 0.521999 67.0436 0.465998C67.2956 0.381999 67.5616 0.339999 67.8416 0.339999H87.3296C88.0016 0.339999 88.4916 0.493999 88.7996 0.801998C89.1076 1.11 89.2616 1.6 89.2616 2.272V7.186C89.2616 7.55 89.2056 7.858 89.0936 8.11C89.0096 8.362 88.8696 8.572 88.6736 8.74L85.0616 11.722C85.3416 11.862 85.5376 12.072 85.6496 12.352C85.7896 12.632 85.8596 12.996 85.8596 13.444V17.938C85.8596 18.302 85.8036 18.61 85.6916 18.862C85.6076 19.114 85.4676 19.324 85.2716 19.492L81.5336 22.642H87.3296C88.0016 22.642 88.4916 22.796 88.7996 23.104C89.1076 23.412 89.2616 23.902 89.2616 24.574V29.488C89.2616 29.852 89.2056 30.16 89.0936 30.412C89.0096 30.664 88.8696 30.874 88.6736 31.042L83.2136 35.578C83.1016 35.69 82.9196 35.788 82.6676 35.872C82.4436 35.956 82.1916 35.998 81.9116 35.998ZM87.3296 31C87.8616 31 88.2396 30.888 88.4636 30.664C88.7156 30.412 88.8416 30.02 88.8416 29.488V24.574C88.8416 24.042 88.7156 23.664 88.4636 23.44C88.2396 23.188 87.8616 23.062 87.3296 23.062H75.7376V19.45H83.9276C84.4596 19.45 84.8376 19.338 85.0616 19.114C85.3136 18.862 85.4396 18.47 85.4396 17.938V13.444C85.4396 12.912 85.3136 12.534 85.0616 12.31C84.8376 12.058 84.4596 11.932 83.9276 11.932H75.7376V8.698H87.3296C87.8616 8.698 88.2396 8.586 88.4636 8.362C88.7156 8.11 88.8416 7.718 88.8416 7.186V2.272C88.8416 1.74 88.7156 1.362 88.4636 1.138C88.2396 0.885999 87.8616 0.759999 87.3296 0.759999H67.8416C67.3096 0.759999 66.9176 0.885999 66.6656 1.138C66.4416 1.362 66.3296 1.74 66.3296 2.272V29.488C66.3296 30.02 66.4416 30.412 66.6656 30.664C66.9176 30.888 67.3096 31 67.8416 31H87.3296ZM85.0616 26.8V27.22H70.9076V4.54H85.0616V4.96H71.3276V15.502H81.6596V15.922H71.3276V26.8H85.0616ZM101.984 35.998H93.4996C92.8276 35.998 92.3376 35.844 92.0296 35.536C91.7216 35.228 91.5676 34.738 91.5676 34.066V25.54C91.5676 25.176 91.6096 24.868 91.6936 24.616C91.8056 24.336 91.9456 24.126 92.1136 23.986L97.5736 19.408C97.7136 19.296 97.8956 19.212 98.1196 19.156C98.3436 19.072 98.6096 19.03 98.9176 19.03H107.402C108.074 19.03 108.564 19.184 108.872 19.492C109.18 19.772 109.334 20.262 109.334 20.962V29.488C109.334 29.852 109.278 30.16 109.166 30.412C109.082 30.664 108.942 30.874 108.746 31.042L103.286 35.578C103.174 35.69 102.992 35.788 102.74 35.872C102.516 35.956 102.264 35.998 101.984 35.998ZM107.402 31C107.934 31 108.312 30.888 108.536 30.664C108.788 30.412 108.914 30.02 108.914 29.488V20.962C108.914 20.43 108.788 20.052 108.536 19.828C108.312 19.576 107.934 19.45 107.402 19.45H98.9176C98.3856 19.45 97.9936 19.576 97.7416 19.828C97.5176 20.052 97.4056 20.43 97.4056 20.962V29.488C97.4056 30.02 97.5176 30.412 97.7416 30.664C97.9936 30.888 98.3856 31 98.9176 31H107.402ZM102.95 27.22V23.23H103.37V27.22H102.95Z" fill="black"/>
</svg>
