<svg width="91" height="51" viewBox="0 0 91 51" fill="none" xmlns="http://www.w3.org/2000/svg">
<rect width="91" height="35" fill="#FF7A00"/>
<path d="M35.0345 41V10.13H40.7885L43.2665 26.132L43.4765 27.77H43.5605L43.7705 26.132L46.2485 10.13H52.0025V41H47.8025V20.294H47.5505L47.3825 21.596L44.6945 41H42.3425L39.6545 21.596L39.4865 20.294H39.2345V41H35.0345ZM54.7902 41V36.338H59.2002V41H54.7902ZM61.9818 41V10.13H72.3558V14.792H66.5178V23.108H70.7178V27.644H66.5178V36.338H72.3558V41H61.9818ZM75.134 41V36.338H79.544V41H75.134Z" fill="black"/>
</svg>
